#!OML:ASF H:\Dans Jumps\Project 1\Capture day 1\Session 1\subject.ASF
:FULLY-SPECIFIED
:DEGREES
523
root 0.0479855 17.6608 9.92194 8.76839 -3.39586 -1.65279
lowerback 2.15561 -0.492268 -0.074662
upperback 1.82406 -0.665988 2.1188
thorax 0.686806 -0.347326 2.22386
lowerneck -14.0499 1.00266 -1.17779
upperneck 15.6532 1.58578 0.186694
head 7.09726 0.705055 0.414431
rclavicle 8.24956e-015 -9.54166e-015
rhumerus -22.7427 -18.4863 -81.136
rradius 21.5485
rwrist 39.389
rhand -23.5025 -29.0579
rfingers 7.12502
rthumb 2.95784 -59.0171
lclavicle 8.24956e-015 -9.54166e-015
lhumerus -18.3719 -9.22761 94.1117
lradius 19.8586
lwrist 7.10824
lhand -26.4638 -7.82896
lfingers 7.12502
lthumb 0.0977824 22.1508
rfemur -19.2051 -0.320333 20.3287
rtibia 24.1835
rfoot -12.5582 -1.87846
rtoes 4.96971
lfemur -19.5069 8.92526 -19.0569
ltibia 22.1223
lfoot -8.82322 4.83152
ltoes -10.9961
524
root 0.0451086 17.6618 9.94561 8.69658 -3.40451 -1.64219
lowerback 2.05914 -0.468314 -0.0541188
upperback 1.81498 -0.634581 2.09051
thorax 0.729676 -0.331377 2.18189
lowerneck -14.0685 0.977991 -1.19446
upperneck 15.6141 1.55042 0.216939
head 7.08766 0.690155 0.423325
rclavicle -1.36167e-014 3.4191e-014
rhumerus -22.5433 -18.2387 -81.329
rradius 21.7397
rwrist 38.8936
rhand -23.588 -29.1191
rfingers 7.12502
rthumb 2.87523 -59.0795
lclavicle -1.36167e-014 3.4191e-014
lhumerus -18.5392 -9.32152 94.1838
lradius 19.8405
lwrist 7.089
lhand -26.3712 -7.79327
lfingers 7.12502
lthumb 0.187185 22.1864
rfemur -19.0066 -0.304196 20.3235
rtibia 24.1287
rfoot -12.6097 -1.91635
rtoes 4.94254
lfemur -19.2883 8.94866 -19.0405
ltibia 22.0414
lfoot -8.87831 4.84502
ltoes -10.9878
525
root 0.0422789 17.6628 9.96884 8.6293 -3.40919 -1.62568
lowerback 1.96301 -0.445685 -0.0356638
upperback 1.80138 -0.60488 2.05947
thorax 0.767829 -0.316226 2.1384
lowerneck -14.0857 0.953535 -1.20641
upperneck 15.5827 1.51569 0.239898
head 7.08043 0.675119 0.429176
rclavicle -9.93923e-017 -6.75868e-015
rhumerus -22.3554 -17.9952 -81.5151
rradius 21.9241
rwrist 38.3867
rhand -23.6832 -29.171
rfingers 7.12502
rthumb 2.78328 -59.1326
lclavicle -9.93923e-017 -6.75868e-015
lhumerus -18.7054 -9.3827 94.2424
lradius 19.8095
lwrist 7.06415
lhand -26.2779 -7.74182
lfingers 7.12502
lthumb 0.277334 22.2377
rfemur -18.8164 -0.29034 20.3115
rtibia 24.0766
rfoot -12.6606 -1.95497
rtoes 4.90744
lfemur -19.075 8.96693 -19.0313
ltibia 21.9561
lfoot -8.93307 4.85689
ltoes -10.9537
526
root 0.0393629 17.6637 9.99143 8.56386 -3.41083 -1.6033
lowerback 1.87603 -0.424653 -0.0226963
upperback 1.78199 -0.577163 2.02743
thorax 0.795105 -0.302029 2.09717
lowerneck -14.1228 0.93549 -1.19973
upperneck 15.576 1.48992 0.241656
head 7.08493 0.663366 0.42626
rclavicle -1.17283e-014 7.55382e-015
rhumerus -22.181 -17.7564 -81.6917
rradius 22.0977
rwrist 37.8786
rhand -23.7911 -29.1813
rfingers 7.12502
rthumb 2.67914 -59.1442
lclavicle -1.17283e-014 7.55382e-015
lhumerus -18.873 -9.40985 94.289
lradius 19.7635
lwrist 7.0365
lhand -26.1802 -7.69645
lfingers 7.12502
lthumb 0.371691 22.283
rfemur -18.6328 -0.273753 20.293
rtibia 24.0271
rfoot -12.7106 -1.99628
rtoes 4.88149
lfemur -18.867 8.97833 -19.0283
ltibia 21.8693
lfoot -8.98472 4.8708
ltoes -10.9121
527
root 0.0363675 17.6646 10.0133 8.50394 -3.40327 -1.5757
lowerback 1.79131 -0.406863 -0.0152447
upperback 1.75831 -0.553724 1.9953
thorax 0.816979 -0.289981 2.0591
lowerneck -14.1395 0.913904 -1.20067
upperneck 15.5635 1.46011 0.246338
head 7.08396 0.649552 0.424968
rclavicle 3.57812e-015 1.51076e-014
rhumerus -22.0137 -17.531 -81.8542
rradius 22.2622
rwrist 37.3961
rhand -23.8649 -29.2245
rfingers 7.12502
rthumb 2.60788 -59.1883
lclavicle 3.57812e-015 1.51076e-014
lhumerus -19.0434 -9.43916 94.3316
lradius 19.7111
lwrist 7.0147
lhand -26.1233 -7.63649
lfingers 7.12502
lthumb 0.42664 22.3428
rfemur -18.4578 -0.260101 20.2692
rtibia 23.9788
rfoot -12.7614 -2.04072
rtoes 4.85788
lfemur -18.6707 8.98032 -19.0311
ltibia 21.7836
lfoot -9.03277 4.88452
ltoes -10.8748
528
root 0.0333096 17.6654 10.0346 8.44367 -3.38555 -1.5544
lowerback 1.71137 -0.391816 -0.000526577
upperback 1.73461 -0.533821 1.9658
thorax 0.836276 -0.279631 2.01978
lowerneck -14.1484 0.888746 -1.21474
upperneck 15.5542 1.4267 0.259318
head 7.08255 0.633968 0.42812
rclavicle 9.93923e-017 7.55382e-015
rhumerus -21.8511 -17.3156 -82.0062
rradius 22.418
rwrist 36.945
rhand -23.9152 -29.2537
rfingers 7.12502
rthumb 2.55928 -59.2181
lclavicle 9.93923e-017 7.55382e-015
lhumerus -19.2082 -9.45072 94.3635
lradius 19.6479
lwrist 6.98381
lhand -26.06 -7.56594
lfingers 7.12502
lthumb 0.487834 22.4132
rfemur -18.281 -0.249708 20.2528
rtibia 23.9272
rfoot -12.8123 -2.0866
rtoes 4.84183
lfemur -18.4796 8.96995 -19.0254
ltibia 21.7016
lfoot -9.07656 4.90122
ltoes -10.8411
529
root 0.0301922 17.6661 10.0556 8.38383 -3.35467 -1.54012
lowerback 1.62907 -0.381451 0.0214799
upperback 1.71477 -0.520219 1.94024
thorax 0.861074 -0.272424 1.98048
lowerneck -14.1568 0.862558 -1.23734
upperneck 15.5464 1.39295 0.276691
head 7.08146 0.618106 0.434067
rclavicle 7.95139e-015 -1.51076e-014
rhumerus -21.6894 -17.0954 -82.1526
rradius 22.5734
rwrist 36.5231
rhand -23.9299 -29.3003
rfingers 7.12502
rthumb 2.5451 -59.2649
lclavicle 7.95139e-015 -1.51076e-014
lhumerus -19.3625 -9.44244 94.3839
lradius 19.5762
lwrist 6.93937
lhand -25.9983 -7.49266
lfingers 7.12502
lthumb 0.547431 22.4864
rfemur -18.0992 -0.248301 20.2446
rtibia 23.8671
rfoot -12.8621 -2.13057
rtoes 4.84076
lfemur -18.2923 8.9476 -19.0108
ltibia 21.6215
lfoot -9.11717 4.91811
ltoes -10.8115
530
root 0.027131 17.6667 10.0765 8.32154 -3.31324 -1.53658
lowerback 1.5414 -0.373758 0.0561249
upperback 1.70143 -0.510298 1.91867
thorax 0.895631 -0.267018 1.93818
lowerneck -14.1514 0.829122 -1.2865
upperneck 15.5338 1.35099 0.315552
head 7.07612 0.598731 0.450401
rclavicle 4.27387e-015 1.31198e-014
rhumerus -21.5238 -16.8868 -82.2908
rradius 22.7183
rwrist 36.1521
rhand -23.9098 -29.337
rfingers 7.12502
rthumb 2.56443 -59.3014
lclavicle 4.27387e-015 1.31198e-014
lhumerus -19.5089 -9.40667 94.3918
lradius 19.5029
lwrist 6.86744
lhand -25.93 -7.41192
lfingers 7.12502
lthumb 0.613357 22.5669
rfemur -17.9054 -0.261121 20.2486
rtibia 23.7938
rfoot -12.9112 -2.16569
rtoes 4.84542
lfemur -18.1044 8.91554 -18.9833
ltibia 21.5447
lfoot -9.1558 4.93746
ltoes -10.7894
